<svg xmlns="http://www.w3.org/2000/svg" viewBox="0 0 360 72" role="img" aria-labelledby="title desc">
  <title id="title">Small Site Studio logo</title>
  <desc id="desc">Three sweeping S-shaped ribbons forming an SSS mark beside the Small Site Studio wordmark.</desc>
  <defs>
    <linearGradient id="navy" x1="0" y1="64" x2="86" y2="8" gradientUnits="userSpaceOnUse">
      <stop stop-color="#0f2438"/>
      <stop offset="1" stop-color="#1d3a55"/>
    </linearGradient>
    <linearGradient id="blue" x1="15" y1="66" x2="98" y2="10" gradientUnits="userSpaceOnUse">
      <stop stop-color="#4778a8"/>
      <stop offset="1" stop-color="#7ca7cf"/>
    </linearGradient>
    <linearGradient id="mint" x1="30" y1="66" x2="110" y2="10" gradientUnits="userSpaceOnUse">
      <stop stop-color="#65c7a5"/>
      <stop offset="1" stop-color="#9ee7cb"/>
    </linearGradient>
  </defs>
  <g fill="none" fill-rule="evenodd">
    <g transform="translate(5 6)">
      <path d="M4 58 C28 50 38 38 28 29 C19 21 24 11 45 7 C60 4 78 3 103 4 C72 9 48 18 42 30 C36 42 24 53 4 58 Z" fill="url(#navy)"/>
      <path d="M28 60 C52 51 62 40 52 30 C43 21 49 12 71 8 C83 6 96 5 111 5 C86 11 67 19 62 30 C56 43 47 53 28 60 Z" fill="url(#blue)"/>
      <path d="M58 60 C82 51 92 40 82 30 C74 22 80 13 101 8 C111 6 120 5 130 5 C112 12 99 20 95 30 C89 43 79 53 58 60 Z" fill="url(#mint)"/>
    </g>
    <text x="150" y="31" font-family="Inter, ui-sans-serif, system-ui, -apple-system, BlinkMacSystemFont, 'Segoe UI', sans-serif" font-size="23" font-weight="900" letter-spacing="-.8" fill="currentColor">Small Site</text>
    <text x="150" y="53" font-family="Inter, ui-sans-serif, system-ui, -apple-system, BlinkMacSystemFont, 'Segoe UI', sans-serif" font-size="21" font-weight="750" letter-spacing="-.45" fill="currentColor" opacity=".72">Studio</text>
  </g>
</svg>
